<svg xmlns="http://www.w3.org/2000/svg" width="900" height="700" viewBox="0 0 900 700" role="img">
<defs>
  <linearGradient id="bg" x1="0" y1="0" x2="0" y2="1">
    <stop offset="0" stop-color="#FBF6EF"/><stop offset="1" stop-color="#F3E8D9"/>
  </linearGradient>
  <radialGradient id="plate" cx="50%" cy="42%" r="60%">
    <stop offset="0" stop-color="#FFFDFA"/><stop offset="1" stop-color="#ECE1D2"/>
  </radialGradient>
  
</defs>

  <rect width="900" height="700" fill="url(#bg)"/>
  <circle cx="450" cy="322" r="252" fill="#F08A24" opacity="0.10"/>
  <circle cx="450" cy="322" r="210" fill="#E0402F" opacity="0.08"/>
  <g transform="translate(450 294) scale(1.5)">
    <g transform="translate(-34 6) rotate(-18)">
    <rect x="-22" y="-78" width="44" height="156" rx="22" fill="#E3B774"/>
    <rect x="-22" y="-78" width="44" height="156" rx="22" fill="none" stroke="#C9974F" stroke-width="5"/>
    <line x1="-10" y1="-50" x2="14" y2="-30" stroke="#C9974F" stroke-width="4"/>
    <line x1="-12" y1="0" x2="12" y2="20" stroke="#C9974F" stroke-width="4"/>
  </g><g transform="translate(34 -6) rotate(14)">
    <rect x="-22" y="-78" width="44" height="156" rx="22" fill="#E3B774"/>
    <rect x="-22" y="-78" width="44" height="156" rx="22" fill="none" stroke="#C9974F" stroke-width="5"/>
    <line x1="-10" y1="-50" x2="14" y2="-30" stroke="#C9974F" stroke-width="4"/>
    <line x1="-12" y1="0" x2="12" y2="20" stroke="#C9974F" stroke-width="4"/>
  </g>
    <ellipse cx="0" cy="92" rx="34" ry="14" fill="#9C2316"/>
  </g>
  <text x="450" y="674" text-anchor="middle" font-family="Poppins, Arial, sans-serif" font-weight="600" font-size="38" fill="#241F1C" opacity="0.6">Frühlingsrolle</text>
</svg>