<svg xmlns="http://www.w3.org/2000/svg" width="1200" height="1000" viewBox="0 0 1200 1000" role="img">
<defs>
  <linearGradient id="bg" x1="0" y1="0" x2="0" y2="1">
    <stop offset="0" stop-color="#FBF6EF"/><stop offset="1" stop-color="#F3E8D9"/>
  </linearGradient>
  <radialGradient id="plate" cx="50%" cy="42%" r="60%">
    <stop offset="0" stop-color="#FFFDFA"/><stop offset="1" stop-color="#ECE1D2"/>
  </radialGradient>
  
</defs>

  <rect width="1200" height="1000" fill="url(#bg)"/>
  <circle cx="600" cy="460" r="360" fill="#F08A24" opacity="0.10"/>
  <circle cx="600" cy="460" r="300" fill="#E0402F" opacity="0.08"/>
  
  <ellipse cx="600" cy="538.4" rx="320" ry="294.40000000000003" fill="rgba(36,31,28,0.10)"/>
  <ellipse cx="600" cy="500" rx="320" ry="288" fill="url(#plate)"/>
  <ellipse cx="600" cy="500" rx="236.8" ry="211.20000000000002" fill="none" stroke="#E0D3C2" stroke-width="9.6"/>
  <g transform="translate(600 460) scale(1.5)">
    <ellipse cx="0" cy="6" rx="130" ry="64" fill="#F3E8D9"/>
    <ellipse cx="0" cy="0" rx="120" ry="58" fill="#F08A24"/>
    <ellipse cx="0" cy="-2" rx="104" ry="48" fill="#E3B774"/>
    <ellipse cx="-38.93243504655299" cy="11.431388561124407" rx="6" ry="3" fill="#E3B774" transform="rotate(35.17271107121619 -38.93243504655299 11.431388561124407)"/><ellipse cx="9.323770151561712" cy="-41.399515071178214" rx="6" ry="3" fill="#E3B774" transform="rotate(175.2725524806702 9.323770151561712 -41.399515071178214)"/><ellipse cx="5.538562304113856" cy="-15.814505584871085" rx="6" ry="3" fill="#E3B774" transform="rotate(27.071978354989554 5.538562304113856 -15.814505584871085)"/><ellipse cx="-10.549460468238674" cy="-18.620892954714265" rx="6" ry="3" fill="#E3B774" transform="rotate(166.32944609703085 -10.549460468238674 -18.620892954714265)"/><ellipse cx="15.953056187901586" cy="-11.339865596660365" rx="6" ry="3" fill="#E3B774" transform="rotate(34.4397282208005 15.953056187901586 -11.339865596660365)"/><ellipse cx="-10.954097209097927" cy="18.67455747540243" rx="6" ry="3" fill="#E3B774" transform="rotate(92.66436862416118 -10.954097209097927 18.67455747540243)"/><ellipse cx="-10.74124747590333" cy="40.70940763193182" rx="6" ry="3" fill="#E3B774" transform="rotate(144.92844972822323 -10.74124747590333 40.70940763193182)"/><ellipse cx="23.26551564048055" cy="44.03838778774308" rx="6" ry="3" fill="#E3B774" transform="rotate(131.45219540997707 23.26551564048055 44.03838778774308)"/><ellipse cx="14.963293791998451" cy="18.71924724719699" rx="6" ry="3" fill="#E3B774" transform="rotate(137.4461005942437 14.963293791998451 18.71924724719699)"/><ellipse cx="52.66958464693794" cy="-11.510404645096735" rx="6" ry="3" fill="#E3B774" transform="rotate(136.71626347079192 52.66958464693794 -11.510404645096735)"/><ellipse cx="-49.199036729269" cy="-22.145367405811086" rx="6" ry="3" fill="#E3B774" transform="rotate(174.49299145436657 -49.199036729269 -22.145367405811086)"/><ellipse cx="68.97227469144237" cy="4.499274164883907" rx="6" ry="3" fill="#E3B774" transform="rotate(169.02670081702905 68.97227469144237 4.499274164883907)"/><ellipse cx="-8.856329269157083" cy="3.35493926374223" rx="6" ry="3" fill="#E3B774" transform="rotate(146.53713891341502 -8.856329269157083 3.35493926374223)"/><ellipse cx="-9.95278642485962" cy="0.9415842066413538" rx="6" ry="3" fill="#E3B774" transform="rotate(146.36307565649633 -9.95278642485962 0.9415842066413538)"/><ellipse cx="71.49297372318226" cy="-31.441603676286398" rx="6" ry="3" fill="#E3B774" transform="rotate(117.84668841950801 71.49297372318226 -31.441603676286398)"/><ellipse cx="5.3622319312739455" cy="22.765957163150727" rx="6" ry="3" fill="#E3B774" transform="rotate(133.5214573731618 5.3622319312739455 22.765957163150727)"/><ellipse cx="36.63154330960447" cy="9.995930120038047" rx="6" ry="3" fill="#E3B774" transform="rotate(61.534342403378695 36.63154330960447 9.995930120038047)"/><ellipse cx="-42.69413609226118" cy="17.72265590271417" rx="6" ry="3" fill="#E3B774" transform="rotate(113.66796970273792 -42.69413609226118 17.72265590271417)"/><ellipse cx="45.74092676653245" cy="20.544972724205422" rx="6" ry="3" fill="#E3B774" transform="rotate(54.39957534597617 45.74092676653245 20.544972724205422)"/><ellipse cx="9.895882790176682" cy="11.460496871247084" rx="6" ry="3" fill="#E3B774" transform="rotate(52.42925454257177 9.895882790176682 11.460496871247084)"/><ellipse cx="57.28667271827667" cy="11.395351979354606" rx="6" ry="3" fill="#E3B774" transform="rotate(12.606891261124954 57.28667271827667 11.395351979354606)"/><ellipse cx="-1.260090045800088" cy="-18.14874169193131" rx="6" ry="3" fill="#E3B774" transform="rotate(31.875250104864485 -1.260090045800088 -18.14874169193131)"/><ellipse cx="39.57150698486426" cy="-12.576464645737632" rx="6" ry="3" fill="#E3B774" transform="rotate(45.541866884306444 39.57150698486426 -12.576464645737632)"/><ellipse cx="31.318940015353068" cy="-0.7461165533498328" rx="6" ry="3" fill="#E3B774" transform="rotate(144.9485581043101 31.318940015353068 -0.7461165533498328)"/><ellipse cx="-31.691438835588137" cy="46.84512046512763" rx="6" ry="3" fill="#E3B774" transform="rotate(1.1442439210720812 -31.691438835588137 46.84512046512763)"/><ellipse cx="-54.629537758472644" cy="-15.380025063296852" rx="6" ry="3" fill="#E3B774" transform="rotate(10.913634037168997 -54.629537758472644 -15.380025063296852)"/><ellipse cx="8.020407962066905" cy="-24.920266441817862" rx="6" ry="3" fill="#E3B774" transform="rotate(12.267752048360933 8.020407962066905 -24.920266441817862)"/><ellipse cx="-49.73191823982671" cy="-43.78909570684432" rx="6" ry="3" fill="#E3B774" transform="rotate(132.7630350222856 -49.73191823982671 -43.78909570684432)"/><ellipse cx="-14.063906293292693" cy="-17.750409132860064" rx="6" ry="3" fill="#E3B774" transform="rotate(90.10246984631416 -14.063906293292693 -17.750409132860064)"/><ellipse cx="60.05635927900169" cy="13.041623658768737" rx="6" ry="3" fill="#E3B774" transform="rotate(12.387206504935286 60.05635927900169 13.041623658768737)"/><ellipse cx="-35.44826842742064" cy="-16.838835591045733" rx="6" ry="3" fill="#E3B774" transform="rotate(161.73896294526358 -35.44826842742064 -16.838835591045733)"/><ellipse cx="-49.277430269019085" cy="-12.882500103930413" rx="6" ry="3" fill="#E3B774" transform="rotate(136.5398409749922 -49.277430269019085 -12.882500103930413)"/><ellipse cx="2.8873032361826523" cy="40.48922159327782" rx="6" ry="3" fill="#E3B774" transform="rotate(102.96286774565927 2.8873032361826523 40.48922159327782)"/><ellipse cx="21.52656830292166" cy="6.005592314383675" rx="6" ry="3" fill="#E3B774" transform="rotate(161.11460313096535 21.52656830292166 6.005592314383675)"/><ellipse cx="-70.91781094568879" cy="-12.114932276058587" rx="6" ry="3" fill="#E3B774" transform="rotate(131.77012427101587 -70.91781094568879 -12.114932276058587)"/><ellipse cx="-33.75324738285888" cy="11.445032177195463" rx="6" ry="3" fill="#E3B774" transform="rotate(43.87802619961792 -33.75324738285888 11.445032177195463)"/><ellipse cx="4.044274782975196" cy="-0.172842974578263" rx="6" ry="3" fill="#E3B774" transform="rotate(19.799099569897976 4.044274782975196 -0.172842974578263)"/><ellipse cx="0.19851443890666287" cy="0.02675912635384495" rx="6" ry="3" fill="#E3B774" transform="rotate(6.45058399558502 0.19851443890666287 0.02675912635384495)"/><ellipse cx="-31.409415455005504" cy="34.32456871685305" rx="6" ry="3" fill="#E3B774" transform="rotate(53.67944879461454 -31.409415455005504 34.32456871685305)"/><ellipse cx="-4.883966353622414" cy="-3.7314445247486994" rx="6" ry="3" fill="#E3B774" transform="rotate(56.760110737808745 -4.883966353622414 -3.7314445247486994)"/><ellipse cx="-1.2931802571664262" cy="0.5186216964902576" rx="6" ry="3" fill="#E3B774" transform="rotate(148.87259290934094 -1.2931802571664262 0.5186216964902576)"/><ellipse cx="-51.44478130789848" cy="40.607795276065914" rx="6" ry="3" fill="#E3B774" transform="rotate(166.00526933858572 -51.44478130789848 40.607795276065914)"/><ellipse cx="20.459207395968384" cy="-0.34150997138081884" rx="6" ry="3" fill="#E3B774" transform="rotate(108.01796780050466 20.459207395968384 -0.34150997138081884)"/><ellipse cx="-29.208642795959385" cy="-9.42042350541308" rx="6" ry="3" fill="#E3B774" transform="rotate(13.917485825109628 -29.208642795959385 -9.42042350541308)"/><ellipse cx="1.3329844312305537" cy="0.22107153263764587" rx="6" ry="3" fill="#E3B774" transform="rotate(179.931205945259 1.3329844312305537 0.22107153263764587)"/><ellipse cx="-1.6611137058280507" cy="0.1879701906680841" rx="6" ry="3" fill="#E3B774" transform="rotate(148.98262777977536 -1.6611137058280507 0.1879701906680841)"/><ellipse cx="-54.528396658936636" cy="41.884216205061" rx="6" ry="3" fill="#E3B774" transform="rotate(159.85088677020528 -54.528396658936636 41.884216205061)"/><ellipse cx="35.81538357519913" cy="18.4453581255668" rx="6" ry="3" fill="#E3B774" transform="rotate(144.19740935145856 35.81538357519913 18.4453581255668)"/><ellipse cx="-57.63537139864327" cy="-13.65744809658219" rx="6" ry="3" fill="#E3B774" transform="rotate(161.91613588560048 -57.63537139864327 -13.65744809658219)"/><ellipse cx="-19.969582724971357" cy="47.50352596516528" rx="6" ry="3" fill="#E3B774" transform="rotate(122.71029103086327 -19.969582724971357 47.50352596516528)"/><ellipse cx="-9.098227525989317" cy="-11.902134129053092" rx="6" ry="3" fill="#E3B774" transform="rotate(84.61219111660913 -9.098227525989317 -11.902134129053092)"/><ellipse cx="-20.42999906868012" cy="42.5161786398185" rx="6" ry="3" fill="#E3B774" transform="rotate(14.196364911910084 -20.42999906868012 42.5161786398185)"/><ellipse cx="2.862056192348756" cy="-1.041538073626182" rx="6" ry="3" fill="#E3B774" transform="rotate(162.6047378733768 2.862056192348756 -1.041538073626182)"/><ellipse cx="-13.943633510154394" cy="-5.372631590578465" rx="6" ry="3" fill="#E3B774" transform="rotate(113.55449648663839 -13.943633510154394 -5.372631590578465)"/><ellipse cx="45.80836676544297" cy="-14.7736437403967" rx="6" ry="3" fill="#E3B774" transform="rotate(161.00362185867928 45.80836676544297 -14.7736437403967)"/><ellipse cx="3.433861970518156" cy="-8.456230715395478" rx="6" ry="3" fill="#E3B774" transform="rotate(77.857244018639 3.433861970518156 -8.456230715395478)"/><ellipse cx="-1.5064582767222485" cy="0.5724093275077304" rx="6" ry="3" fill="#E3B774" transform="rotate(124.61643639524618 -1.5064582767222485 0.5724093275077304)"/><ellipse cx="-0.036834738550076955" cy="0.017193532774547285" rx="6" ry="3" fill="#E3B774" transform="rotate(171.97190314139354 -0.036834738550076955 0.017193532774547285)"/><ellipse cx="2.2499839055987274" cy="-0.5520387980193316" rx="6" ry="3" fill="#E3B774" transform="rotate(3.2171905508770893 2.2499839055987274 -0.5520387980193316)"/><ellipse cx="-0.5824348723878225" cy="12.416078614744665" rx="6" ry="3" fill="#E3B774" transform="rotate(66.22247775292416 -0.5824348723878225 12.416078614744665)"/>
    <circle cx="-30" cy="-6" r="10" fill="#A6532E"/><circle cx="36" cy="6" r="10" fill="#A6532E"/>
    <circle cx="6" cy="-18" r="7" fill="#7BA05B"/><circle cx="-58" cy="14" r="6" fill="#E0402F"/>
    <circle cx="54" cy="-12" r="6" fill="#7BA05B"/>
  </g>
  <g transform="translate(264 300) scale(0.9)">
    <g transform="translate(-34 6) rotate(-18)">
    <rect x="-22" y="-78" width="44" height="156" rx="22" fill="#E3B774"/>
    <rect x="-22" y="-78" width="44" height="156" rx="22" fill="none" stroke="#C9974F" stroke-width="5"/>
    <line x1="-10" y1="-50" x2="14" y2="-30" stroke="#C9974F" stroke-width="4"/>
    <line x1="-12" y1="0" x2="12" y2="20" stroke="#C9974F" stroke-width="4"/>
  </g><g transform="translate(34 -6) rotate(14)">
    <rect x="-22" y="-78" width="44" height="156" rx="22" fill="#E3B774"/>
    <rect x="-22" y="-78" width="44" height="156" rx="22" fill="none" stroke="#C9974F" stroke-width="5"/>
    <line x1="-10" y1="-50" x2="14" y2="-30" stroke="#C9974F" stroke-width="4"/>
    <line x1="-12" y1="0" x2="12" y2="20" stroke="#C9974F" stroke-width="4"/>
  </g>
    <ellipse cx="0" cy="92" rx="34" ry="14" fill="#9C2316"/>
  </g>

  
</svg>