<svg xmlns="http://www.w3.org/2000/svg" viewBox="0 0 120 104" width="120" height="104">
  <!-- Verkaufsstand/Bude (eigene Grafik). Das Gericht-Emoji wird im Spiel darueber gesetzt. -->
  <!-- Pfosten -->
  <rect x="12" y="34" width="8" height="64" rx="2" fill="#b06a37" stroke="#3a2a1f" stroke-width="2"/>
  <rect x="100" y="34" width="8" height="64" rx="2" fill="#b06a37" stroke="#3a2a1f" stroke-width="2"/>
  <!-- Rueckwand -->
  <rect x="18" y="40" width="84" height="52" rx="6" fill="#fffdf7" stroke="#3a2a1f" stroke-width="3"/>
  <!-- Theke -->
  <rect x="8" y="86" width="104" height="14" rx="4" fill="#ffc72c" stroke="#3a2a1f" stroke-width="3"/>
  <rect x="8" y="86" width="104" height="4" fill="#ffda5c"/>
  <!-- Markise: weisser Grund + rote Streifen -->
  <rect x="4" y="20" width="112" height="16" rx="3" fill="#ffffff" stroke="#3a2a1f" stroke-width="3"/>
  <rect x="20" y="21" width="16" height="14" fill="#ff5c5c"/>
  <rect x="52" y="21" width="16" height="14" fill="#ff5c5c"/>
  <rect x="84" y="21" width="16" height="14" fill="#ff5c5c"/>
  <!-- Bogen-Unterkante -->
  <path d="M4 36 q8 11 16 0 q8 11 16 0 q8 11 16 0 q8 11 16 0 q8 11 16 0 q8 11 16 0 q8 11 16 0"
        fill="#ff5c5c"/>
</svg>
