<svg xmlns="http://www.w3.org/2000/svg" width="900" height="900" viewBox="0 0 900 900" role="img">
<defs>
  <linearGradient id="bg" x1="0" y1="0" x2="0" y2="1">
    <stop offset="0" stop-color="#F7F2EA"/><stop offset="1" stop-color="#EFE6D7"/>
  </linearGradient>
  
</defs>

  <rect width="900" height="900" fill="url(#bg)"/>
  <path d="M 144 414 A 306 306 0 0 1 756 414 Z" fill="#E9CBB9" opacity="0.6"/>
  <path d="M 180 414 A 270 270 0 0 1 720 414 Z" fill="#D8E0CF" opacity="0.55"/>
  <g transform="translate(450 378) scale(1.05)">
    <path d="M -150 260 C -150 160, -90 130, 0 130 C 90 130, 150 160, 150 260 Z" fill="#F7F2EA"/>
    <ellipse cx="0" cy="20" rx="76" ry="90" fill="#E9CBB9"/>
    <!-- Haar -->
    <path d="M -80 -10 C -95 -110, 95 -110, 80 -10 C 60 -70, -60 -70, -80 -10 Z" fill="#2A2A28"/>
    <!-- Bart -->
    <path d="M -70 40 C -70 110, -35 135, 0 135 C 35 135, 70 110, 70 40 C 50 90, -50 90, -70 40 Z" fill="#2A2A28" opacity="0.92"/>
  </g>
  <text x="450" y="874" text-anchor="middle" font-family="Georgia, serif" font-size="32" fill="#2A2A28" opacity="0.55">Herrenhaarschnitt</text>
</svg>