<svg xmlns="http://www.w3.org/2000/svg" width="900" height="900" viewBox="0 0 900 900" role="img">
<defs>
  <linearGradient id="bg" x1="0" y1="0" x2="0" y2="1">
    <stop offset="0" stop-color="#F7F2EA"/><stop offset="1" stop-color="#EFE6D7"/>
  </linearGradient>
  
</defs>

  <rect width="900" height="900" fill="url(#bg)"/>
  <path d="M 144 414 A 306 306 0 0 1 756 414 Z" fill="#E9CBB9" opacity="0.6"/>
  <path d="M 180 414 A 270 270 0 0 1 720 414 Z" fill="#D8E0CF" opacity="0.55"/>
  <g transform="translate(360 414) scale(1.5)">
    <rect x="-16" y="-92" width="32" height="26" rx="6" fill="#586549"/>
    <rect x="-40" y="-66" width="80" height="150" rx="22" fill="#8A9A7B"/>
    <rect x="-40" y="-20" width="80" height="50" fill="#F7F2EA" opacity="0.85"/>
  </g><g stroke="#B5673F" stroke-width="3.5999999999999996" fill="none" stroke-linecap="round">
    <path d="M 576 450 C 576 378, 576 342, 576 306"/>
  </g><g transform="translate(578 342) rotate(25) scale(1.2)"><path d="M0 0 Q 18 -10 36 0 Q 18 10 0 0 Z" fill="#B5673F"/></g><g transform="translate(530.4 372) rotate(200) scale(1.2)"><path d="M0 0 Q 18 -10 36 0 Q 18 10 0 0 Z" fill="#B5673F"/></g><g transform="translate(578 402) rotate(25) scale(1.2)"><path d="M0 0 Q 18 -10 36 0 Q 18 10 0 0 Z" fill="#B5673F"/></g><g transform="translate(530.4 426) rotate(200) scale(1.2)"><path d="M0 0 Q 18 -10 36 0 Q 18 10 0 0 Z" fill="#B5673F"/></g>
  <text x="450" y="874" text-anchor="middle" font-family="Georgia, serif" font-size="32" fill="#2A2A28" opacity="0.55">Detox & Care</text>
</svg>